<mxfile host="app.diagrams.net" modified="2023-10-12T18:01:50.854Z" agent="Mozilla/5.0 (Macintosh; Intel Mac OS X 10_15_7) AppleWebKit/537.36 (KHTML, like Gecko) Chrome/117.0.0.0 Safari/537.36" etag="wEvSQ_giehTTmwuB3Y0B" version="21.5.2" type="github">
  <diagram name="第 1 页" id="knf4weSGLRtSJvmpXS4m">
    <mxGraphModel dx="1861" dy="838" grid="0" gridSize="10" guides="1" tooltips="1" connect="1" arrows="1" fold="1" page="0" pageScale="1" pageWidth="827" pageHeight="1169" background="none" math="0" shadow="0">
      <root>
        <mxCell id="0" />
        <mxCell id="1" parent="0" />
        <mxCell id="BbgsiEQd0rfRnViW2cmx-143" value="" style="shape=trapezoid;perimeter=trapezoidPerimeter;whiteSpace=wrap;html=1;fixedSize=1;rotation=-180;size=-150;dashed=1;" vertex="1" parent="1">
          <mxGeometry x="483" y="789.5" width="252" height="133.5" as="geometry" />
        </mxCell>
        <mxCell id="BbgsiEQd0rfRnViW2cmx-60" value="" style="rounded=0;whiteSpace=wrap;html=1;dashed=1;" vertex="1" parent="1">
          <mxGeometry x="110" y="280" width="620" height="157.5" as="geometry" />
        </mxCell>
        <mxCell id="BbgsiEQd0rfRnViW2cmx-1" value="" style="rounded=0;whiteSpace=wrap;html=1;fillColor=#009900;" vertex="1" parent="1">
          <mxGeometry x="250" y="330" width="20" height="20" as="geometry" />
        </mxCell>
        <mxCell id="BbgsiEQd0rfRnViW2cmx-2" value="" style="rounded=0;whiteSpace=wrap;html=1;fillColor=#009900;" vertex="1" parent="1">
          <mxGeometry x="290" y="330" width="20" height="20" as="geometry" />
        </mxCell>
        <mxCell id="BbgsiEQd0rfRnViW2cmx-3" value="" style="rounded=0;whiteSpace=wrap;html=1;fillColor=#009900;" vertex="1" parent="1">
          <mxGeometry x="330" y="330" width="20" height="20" as="geometry" />
        </mxCell>
        <mxCell id="BbgsiEQd0rfRnViW2cmx-5" value="" style="rounded=0;whiteSpace=wrap;html=1;fillColor=#009900;" vertex="1" parent="1">
          <mxGeometry x="210" y="330" width="20" height="20" as="geometry" />
        </mxCell>
        <mxCell id="BbgsiEQd0rfRnViW2cmx-6" value="" style="rounded=0;whiteSpace=wrap;html=1;fillColor=#009900;" vertex="1" parent="1">
          <mxGeometry x="370" y="330" width="20" height="20" as="geometry" />
        </mxCell>
        <mxCell id="BbgsiEQd0rfRnViW2cmx-7" value="" style="endArrow=blockThin;html=1;rounded=0;exitX=0;exitY=0.5;exitDx=0;exitDy=0;entryX=1;entryY=0.5;entryDx=0;entryDy=0;endFill=1;" edge="1" parent="1" source="BbgsiEQd0rfRnViW2cmx-1" target="BbgsiEQd0rfRnViW2cmx-5">
          <mxGeometry width="50" height="50" relative="1" as="geometry">
            <mxPoint x="390" y="400" as="sourcePoint" />
            <mxPoint x="440" y="350" as="targetPoint" />
          </mxGeometry>
        </mxCell>
        <mxCell id="BbgsiEQd0rfRnViW2cmx-8" value="" style="endArrow=blockThin;html=1;rounded=0;exitX=0;exitY=0.5;exitDx=0;exitDy=0;endFill=1;entryX=1;entryY=0.5;entryDx=0;entryDy=0;" edge="1" parent="1" source="BbgsiEQd0rfRnViW2cmx-2" target="BbgsiEQd0rfRnViW2cmx-1">
          <mxGeometry width="50" height="50" relative="1" as="geometry">
            <mxPoint x="260" y="350" as="sourcePoint" />
            <mxPoint x="240" y="350" as="targetPoint" />
          </mxGeometry>
        </mxCell>
        <mxCell id="BbgsiEQd0rfRnViW2cmx-9" value="" style="endArrow=blockThin;html=1;rounded=0;exitX=0;exitY=0.5;exitDx=0;exitDy=0;entryX=1;entryY=0.5;entryDx=0;entryDy=0;endFill=1;" edge="1" parent="1" source="BbgsiEQd0rfRnViW2cmx-3" target="BbgsiEQd0rfRnViW2cmx-2">
          <mxGeometry width="50" height="50" relative="1" as="geometry">
            <mxPoint x="270" y="360" as="sourcePoint" />
            <mxPoint x="250" y="360" as="targetPoint" />
          </mxGeometry>
        </mxCell>
        <mxCell id="BbgsiEQd0rfRnViW2cmx-10" value="" style="endArrow=blockThin;html=1;rounded=0;entryX=1;entryY=0.5;entryDx=0;entryDy=0;endFill=1;" edge="1" parent="1" source="BbgsiEQd0rfRnViW2cmx-6" target="BbgsiEQd0rfRnViW2cmx-3">
          <mxGeometry width="50" height="50" relative="1" as="geometry">
            <mxPoint x="280" y="370" as="sourcePoint" />
            <mxPoint x="260" y="370" as="targetPoint" />
          </mxGeometry>
        </mxCell>
        <mxCell id="BbgsiEQd0rfRnViW2cmx-23" value="" style="rounded=0;whiteSpace=wrap;html=1;fillColor=#DBDBDB;" vertex="1" parent="1">
          <mxGeometry x="250" y="390" width="20" height="20" as="geometry" />
        </mxCell>
        <mxCell id="BbgsiEQd0rfRnViW2cmx-24" value="" style="rounded=0;whiteSpace=wrap;html=1;fillColor=#DBDBDB;" vertex="1" parent="1">
          <mxGeometry x="290" y="390" width="20" height="20" as="geometry" />
        </mxCell>
        <mxCell id="BbgsiEQd0rfRnViW2cmx-25" value="" style="rounded=0;whiteSpace=wrap;html=1;fillColor=#DBDBDB;" vertex="1" parent="1">
          <mxGeometry x="330" y="390" width="20" height="20" as="geometry" />
        </mxCell>
        <mxCell id="BbgsiEQd0rfRnViW2cmx-26" value="" style="rounded=0;whiteSpace=wrap;html=1;fillColor=#DBDBDB;" vertex="1" parent="1">
          <mxGeometry x="210" y="390" width="20" height="20" as="geometry" />
        </mxCell>
        <mxCell id="BbgsiEQd0rfRnViW2cmx-27" value="" style="rounded=0;whiteSpace=wrap;html=1;fillColor=#000000;fillStyle=zigzag-line;" vertex="1" parent="1">
          <mxGeometry x="370" y="390" width="20" height="20" as="geometry" />
        </mxCell>
        <mxCell id="BbgsiEQd0rfRnViW2cmx-28" value="" style="endArrow=blockThin;html=1;rounded=0;exitX=0;exitY=0.5;exitDx=0;exitDy=0;entryX=1;entryY=0.5;entryDx=0;entryDy=0;endFill=1;" edge="1" parent="1" source="BbgsiEQd0rfRnViW2cmx-23" target="BbgsiEQd0rfRnViW2cmx-26">
          <mxGeometry width="50" height="50" relative="1" as="geometry">
            <mxPoint x="390" y="460" as="sourcePoint" />
            <mxPoint x="440" y="410" as="targetPoint" />
          </mxGeometry>
        </mxCell>
        <mxCell id="BbgsiEQd0rfRnViW2cmx-29" value="" style="endArrow=blockThin;html=1;rounded=0;exitX=0;exitY=0.5;exitDx=0;exitDy=0;endFill=1;entryX=1;entryY=0.5;entryDx=0;entryDy=0;" edge="1" parent="1" source="BbgsiEQd0rfRnViW2cmx-24" target="BbgsiEQd0rfRnViW2cmx-23">
          <mxGeometry width="50" height="50" relative="1" as="geometry">
            <mxPoint x="260" y="410" as="sourcePoint" />
            <mxPoint x="240" y="410" as="targetPoint" />
          </mxGeometry>
        </mxCell>
        <mxCell id="BbgsiEQd0rfRnViW2cmx-30" value="" style="endArrow=blockThin;html=1;rounded=0;exitX=0;exitY=0.5;exitDx=0;exitDy=0;entryX=1;entryY=0.5;entryDx=0;entryDy=0;endFill=1;" edge="1" parent="1" source="BbgsiEQd0rfRnViW2cmx-25" target="BbgsiEQd0rfRnViW2cmx-24">
          <mxGeometry width="50" height="50" relative="1" as="geometry">
            <mxPoint x="270" y="420" as="sourcePoint" />
            <mxPoint x="250" y="420" as="targetPoint" />
          </mxGeometry>
        </mxCell>
        <mxCell id="BbgsiEQd0rfRnViW2cmx-31" value="" style="endArrow=blockThin;html=1;rounded=0;exitX=0;exitY=0.5;exitDx=0;exitDy=0;entryX=1;entryY=0.5;entryDx=0;entryDy=0;endFill=1;" edge="1" parent="1" source="BbgsiEQd0rfRnViW2cmx-27" target="BbgsiEQd0rfRnViW2cmx-25">
          <mxGeometry width="50" height="50" relative="1" as="geometry">
            <mxPoint x="280" y="430" as="sourcePoint" />
            <mxPoint x="260" y="430" as="targetPoint" />
          </mxGeometry>
        </mxCell>
        <mxCell id="BbgsiEQd0rfRnViW2cmx-32" value="" style="endArrow=none;html=1;entryX=0.5;entryY=0;entryDx=0;entryDy=0;exitX=0.5;exitY=1;exitDx=0;exitDy=0;curved=1;dashed=1;endFill=0;startArrow=classicThin;startFill=1;" edge="1" parent="1" source="BbgsiEQd0rfRnViW2cmx-5" target="BbgsiEQd0rfRnViW2cmx-26">
          <mxGeometry width="50" height="50" relative="1" as="geometry">
            <mxPoint x="350" y="410" as="sourcePoint" />
            <mxPoint x="400" y="360" as="targetPoint" />
            <Array as="points">
              <mxPoint x="200" y="370" />
            </Array>
          </mxGeometry>
        </mxCell>
        <mxCell id="BbgsiEQd0rfRnViW2cmx-33" value="" style="endArrow=none;html=1;entryX=0.5;entryY=1;entryDx=0;entryDy=0;exitX=0.5;exitY=0;exitDx=0;exitDy=0;curved=1;startArrow=classicThin;startFill=1;endFill=0;dashed=1;" edge="1" parent="1" source="BbgsiEQd0rfRnViW2cmx-27" target="BbgsiEQd0rfRnViW2cmx-6">
          <mxGeometry width="50" height="50" relative="1" as="geometry">
            <mxPoint x="350" y="410" as="sourcePoint" />
            <mxPoint x="400" y="360" as="targetPoint" />
            <Array as="points">
              <mxPoint x="410" y="370" />
            </Array>
          </mxGeometry>
        </mxCell>
        <mxCell id="BbgsiEQd0rfRnViW2cmx-34" value="Active" style="text;html=1;align=center;verticalAlign=middle;resizable=0;points=[];autosize=1;strokeColor=none;fillColor=none;fontSize=10;" vertex="1" parent="1">
          <mxGeometry x="140" y="325" width="60" height="30" as="geometry" />
        </mxCell>
        <mxCell id="BbgsiEQd0rfRnViW2cmx-35" value="Inactive" style="text;html=1;align=center;verticalAlign=middle;resizable=0;points=[];autosize=1;strokeColor=none;fillColor=none;fontSize=10;" vertex="1" parent="1">
          <mxGeometry x="140" y="385" width="60" height="30" as="geometry" />
        </mxCell>
        <mxCell id="BbgsiEQd0rfRnViW2cmx-36" value="" style="rounded=0;whiteSpace=wrap;html=1;fillColor=#CC0000;" vertex="1" parent="1">
          <mxGeometry x="550" y="330" width="20" height="20" as="geometry" />
        </mxCell>
        <mxCell id="BbgsiEQd0rfRnViW2cmx-37" value="" style="rounded=0;whiteSpace=wrap;html=1;fillColor=#CC0000;" vertex="1" parent="1">
          <mxGeometry x="590" y="330" width="20" height="20" as="geometry" />
        </mxCell>
        <mxCell id="BbgsiEQd0rfRnViW2cmx-38" value="" style="rounded=0;whiteSpace=wrap;html=1;fillColor=#CC0000;" vertex="1" parent="1">
          <mxGeometry x="630" y="330" width="20" height="20" as="geometry" />
        </mxCell>
        <mxCell id="BbgsiEQd0rfRnViW2cmx-39" value="" style="rounded=0;whiteSpace=wrap;html=1;fillColor=#CC0000;" vertex="1" parent="1">
          <mxGeometry x="510" y="330" width="20" height="20" as="geometry" />
        </mxCell>
        <mxCell id="BbgsiEQd0rfRnViW2cmx-40" value="" style="rounded=0;whiteSpace=wrap;html=1;fillColor=#CC0000;" vertex="1" parent="1">
          <mxGeometry x="670" y="330" width="20" height="20" as="geometry" />
        </mxCell>
        <mxCell id="BbgsiEQd0rfRnViW2cmx-41" value="" style="endArrow=blockThin;html=1;rounded=0;exitX=0;exitY=0.5;exitDx=0;exitDy=0;entryX=1;entryY=0.5;entryDx=0;entryDy=0;endFill=1;" edge="1" parent="1" source="BbgsiEQd0rfRnViW2cmx-36" target="BbgsiEQd0rfRnViW2cmx-39">
          <mxGeometry width="50" height="50" relative="1" as="geometry">
            <mxPoint x="690" y="400" as="sourcePoint" />
            <mxPoint x="740" y="350" as="targetPoint" />
          </mxGeometry>
        </mxCell>
        <mxCell id="BbgsiEQd0rfRnViW2cmx-42" value="" style="endArrow=blockThin;html=1;rounded=0;exitX=0;exitY=0.5;exitDx=0;exitDy=0;endFill=1;entryX=1;entryY=0.5;entryDx=0;entryDy=0;" edge="1" parent="1" source="BbgsiEQd0rfRnViW2cmx-37" target="BbgsiEQd0rfRnViW2cmx-36">
          <mxGeometry width="50" height="50" relative="1" as="geometry">
            <mxPoint x="560" y="350" as="sourcePoint" />
            <mxPoint x="540" y="350" as="targetPoint" />
          </mxGeometry>
        </mxCell>
        <mxCell id="BbgsiEQd0rfRnViW2cmx-43" value="" style="endArrow=blockThin;html=1;rounded=0;exitX=0;exitY=0.5;exitDx=0;exitDy=0;entryX=1;entryY=0.5;entryDx=0;entryDy=0;endFill=1;" edge="1" parent="1" source="BbgsiEQd0rfRnViW2cmx-38" target="BbgsiEQd0rfRnViW2cmx-37">
          <mxGeometry width="50" height="50" relative="1" as="geometry">
            <mxPoint x="570" y="360" as="sourcePoint" />
            <mxPoint x="550" y="360" as="targetPoint" />
          </mxGeometry>
        </mxCell>
        <mxCell id="BbgsiEQd0rfRnViW2cmx-44" value="" style="endArrow=blockThin;html=1;rounded=0;entryX=1;entryY=0.5;entryDx=0;entryDy=0;endFill=1;" edge="1" parent="1" source="BbgsiEQd0rfRnViW2cmx-40" target="BbgsiEQd0rfRnViW2cmx-38">
          <mxGeometry width="50" height="50" relative="1" as="geometry">
            <mxPoint x="580" y="370" as="sourcePoint" />
            <mxPoint x="560" y="370" as="targetPoint" />
          </mxGeometry>
        </mxCell>
        <mxCell id="BbgsiEQd0rfRnViW2cmx-45" value="" style="rounded=0;whiteSpace=wrap;html=1;fillColor=#DBDBDB;" vertex="1" parent="1">
          <mxGeometry x="550" y="390" width="20" height="20" as="geometry" />
        </mxCell>
        <mxCell id="BbgsiEQd0rfRnViW2cmx-46" value="" style="rounded=0;whiteSpace=wrap;html=1;fillColor=#DBDBDB;" vertex="1" parent="1">
          <mxGeometry x="590" y="390" width="20" height="20" as="geometry" />
        </mxCell>
        <mxCell id="BbgsiEQd0rfRnViW2cmx-47" value="" style="rounded=0;whiteSpace=wrap;html=1;fillColor=#DBDBDB;" vertex="1" parent="1">
          <mxGeometry x="630" y="390" width="20" height="20" as="geometry" />
        </mxCell>
        <mxCell id="BbgsiEQd0rfRnViW2cmx-48" value="" style="rounded=0;whiteSpace=wrap;html=1;fillColor=#DBDBDB;" vertex="1" parent="1">
          <mxGeometry x="510" y="390" width="20" height="20" as="geometry" />
        </mxCell>
        <mxCell id="BbgsiEQd0rfRnViW2cmx-49" value="" style="rounded=0;whiteSpace=wrap;html=1;fillColor=#000000;fillStyle=zigzag-line;" vertex="1" parent="1">
          <mxGeometry x="670" y="390" width="20" height="20" as="geometry" />
        </mxCell>
        <mxCell id="BbgsiEQd0rfRnViW2cmx-50" value="" style="endArrow=blockThin;html=1;rounded=0;exitX=0;exitY=0.5;exitDx=0;exitDy=0;entryX=1;entryY=0.5;entryDx=0;entryDy=0;endFill=1;" edge="1" parent="1" source="BbgsiEQd0rfRnViW2cmx-45" target="BbgsiEQd0rfRnViW2cmx-48">
          <mxGeometry width="50" height="50" relative="1" as="geometry">
            <mxPoint x="690" y="460" as="sourcePoint" />
            <mxPoint x="740" y="410" as="targetPoint" />
          </mxGeometry>
        </mxCell>
        <mxCell id="BbgsiEQd0rfRnViW2cmx-51" value="" style="endArrow=blockThin;html=1;rounded=0;exitX=0;exitY=0.5;exitDx=0;exitDy=0;endFill=1;entryX=1;entryY=0.5;entryDx=0;entryDy=0;" edge="1" parent="1" source="BbgsiEQd0rfRnViW2cmx-46" target="BbgsiEQd0rfRnViW2cmx-45">
          <mxGeometry width="50" height="50" relative="1" as="geometry">
            <mxPoint x="560" y="410" as="sourcePoint" />
            <mxPoint x="540" y="410" as="targetPoint" />
          </mxGeometry>
        </mxCell>
        <mxCell id="BbgsiEQd0rfRnViW2cmx-52" value="" style="endArrow=blockThin;html=1;rounded=0;exitX=0;exitY=0.5;exitDx=0;exitDy=0;entryX=1;entryY=0.5;entryDx=0;entryDy=0;endFill=1;" edge="1" parent="1" source="BbgsiEQd0rfRnViW2cmx-47" target="BbgsiEQd0rfRnViW2cmx-46">
          <mxGeometry width="50" height="50" relative="1" as="geometry">
            <mxPoint x="570" y="420" as="sourcePoint" />
            <mxPoint x="550" y="420" as="targetPoint" />
          </mxGeometry>
        </mxCell>
        <mxCell id="BbgsiEQd0rfRnViW2cmx-53" value="" style="endArrow=blockThin;html=1;rounded=0;exitX=0;exitY=0.5;exitDx=0;exitDy=0;entryX=1;entryY=0.5;entryDx=0;entryDy=0;endFill=1;" edge="1" parent="1" source="BbgsiEQd0rfRnViW2cmx-49" target="BbgsiEQd0rfRnViW2cmx-47">
          <mxGeometry width="50" height="50" relative="1" as="geometry">
            <mxPoint x="580" y="430" as="sourcePoint" />
            <mxPoint x="560" y="430" as="targetPoint" />
          </mxGeometry>
        </mxCell>
        <mxCell id="BbgsiEQd0rfRnViW2cmx-54" value="" style="endArrow=none;html=1;entryX=0.5;entryY=0;entryDx=0;entryDy=0;exitX=0.5;exitY=1;exitDx=0;exitDy=0;curved=1;dashed=1;endFill=0;startArrow=classicThin;startFill=1;" edge="1" parent="1" source="BbgsiEQd0rfRnViW2cmx-39" target="BbgsiEQd0rfRnViW2cmx-48">
          <mxGeometry width="50" height="50" relative="1" as="geometry">
            <mxPoint x="650" y="410" as="sourcePoint" />
            <mxPoint x="700" y="360" as="targetPoint" />
            <Array as="points">
              <mxPoint x="500" y="370" />
            </Array>
          </mxGeometry>
        </mxCell>
        <mxCell id="BbgsiEQd0rfRnViW2cmx-55" value="" style="endArrow=none;html=1;entryX=0.5;entryY=1;entryDx=0;entryDy=0;exitX=0.5;exitY=0;exitDx=0;exitDy=0;curved=1;startArrow=classicThin;startFill=1;endFill=0;dashed=1;" edge="1" parent="1" source="BbgsiEQd0rfRnViW2cmx-49" target="BbgsiEQd0rfRnViW2cmx-40">
          <mxGeometry width="50" height="50" relative="1" as="geometry">
            <mxPoint x="650" y="410" as="sourcePoint" />
            <mxPoint x="700" y="360" as="targetPoint" />
            <Array as="points">
              <mxPoint x="710" y="370" />
            </Array>
          </mxGeometry>
        </mxCell>
        <mxCell id="BbgsiEQd0rfRnViW2cmx-56" value="Active" style="text;html=1;align=center;verticalAlign=middle;resizable=0;points=[];autosize=1;strokeColor=none;fillColor=none;fontSize=10;" vertex="1" parent="1">
          <mxGeometry x="440" y="325" width="60" height="30" as="geometry" />
        </mxCell>
        <mxCell id="BbgsiEQd0rfRnViW2cmx-57" value="Inactive" style="text;html=1;align=center;verticalAlign=middle;resizable=0;points=[];autosize=1;strokeColor=none;fillColor=none;fontSize=10;" vertex="1" parent="1">
          <mxGeometry x="440" y="385" width="60" height="30" as="geometry" />
        </mxCell>
        <mxCell id="BbgsiEQd0rfRnViW2cmx-58" value="文件页" style="text;html=1;align=center;verticalAlign=middle;resizable=0;points=[];autosize=1;strokeColor=none;fillColor=none;" vertex="1" parent="1">
          <mxGeometry x="270" y="290" width="60" height="30" as="geometry" />
        </mxCell>
        <mxCell id="BbgsiEQd0rfRnViW2cmx-59" value="匿名页" style="text;html=1;align=center;verticalAlign=middle;resizable=0;points=[];autosize=1;strokeColor=none;fillColor=none;" vertex="1" parent="1">
          <mxGeometry x="570" y="290" width="60" height="30" as="geometry" />
        </mxCell>
        <mxCell id="BbgsiEQd0rfRnViW2cmx-61" value="Memory" style="text;html=1;align=center;verticalAlign=middle;resizable=0;points=[];autosize=1;strokeColor=none;fillColor=none;" vertex="1" parent="1">
          <mxGeometry x="40" y="343.75" width="70" height="30" as="geometry" />
        </mxCell>
        <mxCell id="BbgsiEQd0rfRnViW2cmx-66" value="" style="rounded=0;whiteSpace=wrap;html=1;dashed=1;" vertex="1" parent="1">
          <mxGeometry x="110" y="490" width="620" height="70" as="geometry" />
        </mxCell>
        <mxCell id="BbgsiEQd0rfRnViW2cmx-67" value="磁盘" style="text;html=1;align=center;verticalAlign=middle;resizable=0;points=[];autosize=1;strokeColor=none;fillColor=none;" vertex="1" parent="1">
          <mxGeometry x="60" y="510" width="50" height="30" as="geometry" />
        </mxCell>
        <mxCell id="BbgsiEQd0rfRnViW2cmx-68" value="File1" style="rounded=0;whiteSpace=wrap;html=1;fillColor=#CCCCCC;" vertex="1" parent="1">
          <mxGeometry x="200" y="515" width="90" height="20" as="geometry" />
        </mxCell>
        <mxCell id="BbgsiEQd0rfRnViW2cmx-69" value="File2" style="rounded=0;whiteSpace=wrap;html=1;fillColor=#CCCCCC;" vertex="1" parent="1">
          <mxGeometry x="320" y="515" width="70" height="20" as="geometry" />
        </mxCell>
        <mxCell id="BbgsiEQd0rfRnViW2cmx-75" value="" style="endArrow=classic;html=1;rounded=0;entryX=0.5;entryY=1;entryDx=0;entryDy=0;exitX=0.5;exitY=0;exitDx=0;exitDy=0;dashed=1;" edge="1" parent="1" source="BbgsiEQd0rfRnViW2cmx-68" target="BbgsiEQd0rfRnViW2cmx-26">
          <mxGeometry width="50" height="50" relative="1" as="geometry">
            <mxPoint x="350" y="400" as="sourcePoint" />
            <mxPoint x="400" y="350" as="targetPoint" />
          </mxGeometry>
        </mxCell>
        <mxCell id="BbgsiEQd0rfRnViW2cmx-76" value="读入" style="edgeLabel;html=1;align=center;verticalAlign=middle;resizable=0;points=[];" vertex="1" connectable="0" parent="BbgsiEQd0rfRnViW2cmx-75">
          <mxGeometry x="-0.0155" y="-1" relative="1" as="geometry">
            <mxPoint as="offset" />
          </mxGeometry>
        </mxCell>
        <mxCell id="BbgsiEQd0rfRnViW2cmx-77" style="rounded=0;orthogonalLoop=1;jettySize=auto;html=1;exitX=0.5;exitY=1;exitDx=0;exitDy=0;entryX=0.5;entryY=0;entryDx=0;entryDy=0;dashed=1;" edge="1" parent="1" source="BbgsiEQd0rfRnViW2cmx-27" target="BbgsiEQd0rfRnViW2cmx-69">
          <mxGeometry relative="1" as="geometry" />
        </mxCell>
        <mxCell id="BbgsiEQd0rfRnViW2cmx-79" value="换出" style="edgeLabel;html=1;align=center;verticalAlign=middle;resizable=0;points=[];" vertex="1" connectable="0" parent="BbgsiEQd0rfRnViW2cmx-77">
          <mxGeometry x="-0.1279" y="1" relative="1" as="geometry">
            <mxPoint x="-2" y="6" as="offset" />
          </mxGeometry>
        </mxCell>
        <mxCell id="BbgsiEQd0rfRnViW2cmx-80" value="Swap" style="rounded=0;whiteSpace=wrap;html=1;fillColor=#A0BD5E;" vertex="1" parent="1">
          <mxGeometry x="490" y="515" width="220" height="20" as="geometry" />
        </mxCell>
        <mxCell id="BbgsiEQd0rfRnViW2cmx-81" style="rounded=0;orthogonalLoop=1;jettySize=auto;html=1;exitX=0.5;exitY=1;exitDx=0;exitDy=0;entryX=0.5;entryY=0;entryDx=0;entryDy=0;dashed=1;" edge="1" parent="1" source="BbgsiEQd0rfRnViW2cmx-49" target="BbgsiEQd0rfRnViW2cmx-80">
          <mxGeometry relative="1" as="geometry">
            <mxPoint x="390" y="420" as="sourcePoint" />
            <mxPoint x="365" y="525" as="targetPoint" />
          </mxGeometry>
        </mxCell>
        <mxCell id="BbgsiEQd0rfRnViW2cmx-82" value="换出" style="edgeLabel;html=1;align=center;verticalAlign=middle;resizable=0;points=[];" vertex="1" connectable="0" parent="BbgsiEQd0rfRnViW2cmx-81">
          <mxGeometry x="-0.1279" y="1" relative="1" as="geometry">
            <mxPoint x="-2" y="6" as="offset" />
          </mxGeometry>
        </mxCell>
        <mxCell id="BbgsiEQd0rfRnViW2cmx-84" value="" style="rounded=0;whiteSpace=wrap;html=1;dashed=1;" vertex="1" parent="1">
          <mxGeometry x="132" y="632" width="603" height="157.5" as="geometry" />
        </mxCell>
        <mxCell id="BbgsiEQd0rfRnViW2cmx-85" value="" style="rounded=0;whiteSpace=wrap;html=1;fillColor=#009900;" vertex="1" parent="1">
          <mxGeometry x="272" y="682" width="20" height="20" as="geometry" />
        </mxCell>
        <mxCell id="BbgsiEQd0rfRnViW2cmx-86" value="" style="rounded=0;whiteSpace=wrap;html=1;fillColor=#009900;" vertex="1" parent="1">
          <mxGeometry x="312" y="682" width="20" height="20" as="geometry" />
        </mxCell>
        <mxCell id="BbgsiEQd0rfRnViW2cmx-87" value="" style="rounded=0;whiteSpace=wrap;html=1;fillColor=#009900;" vertex="1" parent="1">
          <mxGeometry x="352" y="682" width="20" height="20" as="geometry" />
        </mxCell>
        <mxCell id="BbgsiEQd0rfRnViW2cmx-88" value="" style="rounded=0;whiteSpace=wrap;html=1;fillColor=#009900;" vertex="1" parent="1">
          <mxGeometry x="232" y="682" width="20" height="20" as="geometry" />
        </mxCell>
        <mxCell id="BbgsiEQd0rfRnViW2cmx-89" value="" style="rounded=0;whiteSpace=wrap;html=1;fillColor=#009900;" vertex="1" parent="1">
          <mxGeometry x="392" y="682" width="20" height="20" as="geometry" />
        </mxCell>
        <mxCell id="BbgsiEQd0rfRnViW2cmx-90" value="" style="endArrow=blockThin;html=1;rounded=0;exitX=0;exitY=0.5;exitDx=0;exitDy=0;entryX=1;entryY=0.5;entryDx=0;entryDy=0;endFill=1;" edge="1" parent="1" source="BbgsiEQd0rfRnViW2cmx-85" target="BbgsiEQd0rfRnViW2cmx-88">
          <mxGeometry width="50" height="50" relative="1" as="geometry">
            <mxPoint x="412" y="752" as="sourcePoint" />
            <mxPoint x="462" y="702" as="targetPoint" />
          </mxGeometry>
        </mxCell>
        <mxCell id="BbgsiEQd0rfRnViW2cmx-91" value="" style="endArrow=blockThin;html=1;rounded=0;exitX=0;exitY=0.5;exitDx=0;exitDy=0;endFill=1;entryX=1;entryY=0.5;entryDx=0;entryDy=0;" edge="1" parent="1" source="BbgsiEQd0rfRnViW2cmx-86" target="BbgsiEQd0rfRnViW2cmx-85">
          <mxGeometry width="50" height="50" relative="1" as="geometry">
            <mxPoint x="282" y="702" as="sourcePoint" />
            <mxPoint x="262" y="702" as="targetPoint" />
          </mxGeometry>
        </mxCell>
        <mxCell id="BbgsiEQd0rfRnViW2cmx-92" value="" style="endArrow=blockThin;html=1;rounded=0;exitX=0;exitY=0.5;exitDx=0;exitDy=0;entryX=1;entryY=0.5;entryDx=0;entryDy=0;endFill=1;" edge="1" parent="1" source="BbgsiEQd0rfRnViW2cmx-87" target="BbgsiEQd0rfRnViW2cmx-86">
          <mxGeometry width="50" height="50" relative="1" as="geometry">
            <mxPoint x="292" y="712" as="sourcePoint" />
            <mxPoint x="272" y="712" as="targetPoint" />
          </mxGeometry>
        </mxCell>
        <mxCell id="BbgsiEQd0rfRnViW2cmx-93" value="" style="endArrow=blockThin;html=1;rounded=0;entryX=1;entryY=0.5;entryDx=0;entryDy=0;endFill=1;" edge="1" parent="1" source="BbgsiEQd0rfRnViW2cmx-89" target="BbgsiEQd0rfRnViW2cmx-87">
          <mxGeometry width="50" height="50" relative="1" as="geometry">
            <mxPoint x="302" y="722" as="sourcePoint" />
            <mxPoint x="282" y="722" as="targetPoint" />
          </mxGeometry>
        </mxCell>
        <mxCell id="BbgsiEQd0rfRnViW2cmx-94" value="" style="rounded=0;whiteSpace=wrap;html=1;fillColor=#DBDBDB;" vertex="1" parent="1">
          <mxGeometry x="272" y="742" width="20" height="20" as="geometry" />
        </mxCell>
        <mxCell id="BbgsiEQd0rfRnViW2cmx-95" value="" style="rounded=0;whiteSpace=wrap;html=1;fillColor=#DBDBDB;" vertex="1" parent="1">
          <mxGeometry x="312" y="742" width="20" height="20" as="geometry" />
        </mxCell>
        <mxCell id="BbgsiEQd0rfRnViW2cmx-96" value="" style="rounded=0;whiteSpace=wrap;html=1;fillColor=#DBDBDB;" vertex="1" parent="1">
          <mxGeometry x="352" y="742" width="20" height="20" as="geometry" />
        </mxCell>
        <mxCell id="BbgsiEQd0rfRnViW2cmx-97" value="" style="rounded=0;whiteSpace=wrap;html=1;fillColor=#DBDBDB;" vertex="1" parent="1">
          <mxGeometry x="232" y="742" width="20" height="20" as="geometry" />
        </mxCell>
        <mxCell id="BbgsiEQd0rfRnViW2cmx-98" value="" style="rounded=0;whiteSpace=wrap;html=1;fillColor=#000000;fillStyle=zigzag-line;" vertex="1" parent="1">
          <mxGeometry x="392" y="742" width="20" height="20" as="geometry" />
        </mxCell>
        <mxCell id="BbgsiEQd0rfRnViW2cmx-99" value="" style="endArrow=blockThin;html=1;rounded=0;exitX=0;exitY=0.5;exitDx=0;exitDy=0;entryX=1;entryY=0.5;entryDx=0;entryDy=0;endFill=1;" edge="1" parent="1" source="BbgsiEQd0rfRnViW2cmx-94" target="BbgsiEQd0rfRnViW2cmx-97">
          <mxGeometry width="50" height="50" relative="1" as="geometry">
            <mxPoint x="412" y="812" as="sourcePoint" />
            <mxPoint x="462" y="762" as="targetPoint" />
          </mxGeometry>
        </mxCell>
        <mxCell id="BbgsiEQd0rfRnViW2cmx-100" value="" style="endArrow=blockThin;html=1;rounded=0;exitX=0;exitY=0.5;exitDx=0;exitDy=0;endFill=1;entryX=1;entryY=0.5;entryDx=0;entryDy=0;" edge="1" parent="1" source="BbgsiEQd0rfRnViW2cmx-95" target="BbgsiEQd0rfRnViW2cmx-94">
          <mxGeometry width="50" height="50" relative="1" as="geometry">
            <mxPoint x="282" y="762" as="sourcePoint" />
            <mxPoint x="262" y="762" as="targetPoint" />
          </mxGeometry>
        </mxCell>
        <mxCell id="BbgsiEQd0rfRnViW2cmx-101" value="" style="endArrow=blockThin;html=1;rounded=0;exitX=0;exitY=0.5;exitDx=0;exitDy=0;entryX=1;entryY=0.5;entryDx=0;entryDy=0;endFill=1;" edge="1" parent="1" source="BbgsiEQd0rfRnViW2cmx-96" target="BbgsiEQd0rfRnViW2cmx-95">
          <mxGeometry width="50" height="50" relative="1" as="geometry">
            <mxPoint x="292" y="772" as="sourcePoint" />
            <mxPoint x="272" y="772" as="targetPoint" />
          </mxGeometry>
        </mxCell>
        <mxCell id="BbgsiEQd0rfRnViW2cmx-102" value="" style="endArrow=blockThin;html=1;rounded=0;exitX=0;exitY=0.5;exitDx=0;exitDy=0;entryX=1;entryY=0.5;entryDx=0;entryDy=0;endFill=1;" edge="1" parent="1" source="BbgsiEQd0rfRnViW2cmx-98" target="BbgsiEQd0rfRnViW2cmx-96">
          <mxGeometry width="50" height="50" relative="1" as="geometry">
            <mxPoint x="302" y="782" as="sourcePoint" />
            <mxPoint x="282" y="782" as="targetPoint" />
          </mxGeometry>
        </mxCell>
        <mxCell id="BbgsiEQd0rfRnViW2cmx-103" value="" style="endArrow=none;html=1;entryX=0.5;entryY=0;entryDx=0;entryDy=0;exitX=0.5;exitY=1;exitDx=0;exitDy=0;curved=1;dashed=1;endFill=0;startArrow=classicThin;startFill=1;" edge="1" parent="1" source="BbgsiEQd0rfRnViW2cmx-88" target="BbgsiEQd0rfRnViW2cmx-97">
          <mxGeometry width="50" height="50" relative="1" as="geometry">
            <mxPoint x="372" y="762" as="sourcePoint" />
            <mxPoint x="422" y="712" as="targetPoint" />
            <Array as="points">
              <mxPoint x="222" y="722" />
            </Array>
          </mxGeometry>
        </mxCell>
        <mxCell id="BbgsiEQd0rfRnViW2cmx-104" value="" style="endArrow=none;html=1;entryX=0.5;entryY=1;entryDx=0;entryDy=0;exitX=0.5;exitY=0;exitDx=0;exitDy=0;curved=1;startArrow=classicThin;startFill=1;endFill=0;dashed=1;" edge="1" parent="1" source="BbgsiEQd0rfRnViW2cmx-98" target="BbgsiEQd0rfRnViW2cmx-89">
          <mxGeometry width="50" height="50" relative="1" as="geometry">
            <mxPoint x="372" y="762" as="sourcePoint" />
            <mxPoint x="422" y="712" as="targetPoint" />
            <Array as="points">
              <mxPoint x="432" y="722" />
            </Array>
          </mxGeometry>
        </mxCell>
        <mxCell id="BbgsiEQd0rfRnViW2cmx-105" value="Active" style="text;html=1;align=center;verticalAlign=middle;resizable=0;points=[];autosize=1;strokeColor=none;fillColor=none;fontSize=10;" vertex="1" parent="1">
          <mxGeometry x="162" y="677" width="60" height="30" as="geometry" />
        </mxCell>
        <mxCell id="BbgsiEQd0rfRnViW2cmx-106" value="Inactive" style="text;html=1;align=center;verticalAlign=middle;resizable=0;points=[];autosize=1;strokeColor=none;fillColor=none;fontSize=10;" vertex="1" parent="1">
          <mxGeometry x="162" y="737" width="60" height="30" as="geometry" />
        </mxCell>
        <mxCell id="BbgsiEQd0rfRnViW2cmx-107" value="" style="rounded=0;whiteSpace=wrap;html=1;fillColor=#CC0000;" vertex="1" parent="1">
          <mxGeometry x="572" y="682" width="20" height="20" as="geometry" />
        </mxCell>
        <mxCell id="BbgsiEQd0rfRnViW2cmx-108" value="" style="rounded=0;whiteSpace=wrap;html=1;fillColor=#CC0000;" vertex="1" parent="1">
          <mxGeometry x="612" y="682" width="20" height="20" as="geometry" />
        </mxCell>
        <mxCell id="BbgsiEQd0rfRnViW2cmx-109" value="" style="rounded=0;whiteSpace=wrap;html=1;fillColor=#CC0000;" vertex="1" parent="1">
          <mxGeometry x="652" y="682" width="20" height="20" as="geometry" />
        </mxCell>
        <mxCell id="BbgsiEQd0rfRnViW2cmx-110" value="" style="rounded=0;whiteSpace=wrap;html=1;fillColor=#CC0000;" vertex="1" parent="1">
          <mxGeometry x="532" y="682" width="20" height="20" as="geometry" />
        </mxCell>
        <mxCell id="BbgsiEQd0rfRnViW2cmx-111" value="" style="rounded=0;whiteSpace=wrap;html=1;fillColor=#CC0000;" vertex="1" parent="1">
          <mxGeometry x="692" y="682" width="20" height="20" as="geometry" />
        </mxCell>
        <mxCell id="BbgsiEQd0rfRnViW2cmx-112" value="" style="endArrow=blockThin;html=1;rounded=0;exitX=0;exitY=0.5;exitDx=0;exitDy=0;entryX=1;entryY=0.5;entryDx=0;entryDy=0;endFill=1;" edge="1" parent="1" source="BbgsiEQd0rfRnViW2cmx-107" target="BbgsiEQd0rfRnViW2cmx-110">
          <mxGeometry width="50" height="50" relative="1" as="geometry">
            <mxPoint x="712" y="752" as="sourcePoint" />
            <mxPoint x="762" y="702" as="targetPoint" />
          </mxGeometry>
        </mxCell>
        <mxCell id="BbgsiEQd0rfRnViW2cmx-113" value="" style="endArrow=blockThin;html=1;rounded=0;exitX=0;exitY=0.5;exitDx=0;exitDy=0;endFill=1;entryX=1;entryY=0.5;entryDx=0;entryDy=0;" edge="1" parent="1" source="BbgsiEQd0rfRnViW2cmx-108" target="BbgsiEQd0rfRnViW2cmx-107">
          <mxGeometry width="50" height="50" relative="1" as="geometry">
            <mxPoint x="582" y="702" as="sourcePoint" />
            <mxPoint x="562" y="702" as="targetPoint" />
          </mxGeometry>
        </mxCell>
        <mxCell id="BbgsiEQd0rfRnViW2cmx-114" value="" style="endArrow=blockThin;html=1;rounded=0;exitX=0;exitY=0.5;exitDx=0;exitDy=0;entryX=1;entryY=0.5;entryDx=0;entryDy=0;endFill=1;" edge="1" parent="1" source="BbgsiEQd0rfRnViW2cmx-109" target="BbgsiEQd0rfRnViW2cmx-108">
          <mxGeometry width="50" height="50" relative="1" as="geometry">
            <mxPoint x="592" y="712" as="sourcePoint" />
            <mxPoint x="572" y="712" as="targetPoint" />
          </mxGeometry>
        </mxCell>
        <mxCell id="BbgsiEQd0rfRnViW2cmx-115" value="" style="endArrow=blockThin;html=1;rounded=0;entryX=1;entryY=0.5;entryDx=0;entryDy=0;endFill=1;" edge="1" parent="1" source="BbgsiEQd0rfRnViW2cmx-111" target="BbgsiEQd0rfRnViW2cmx-109">
          <mxGeometry width="50" height="50" relative="1" as="geometry">
            <mxPoint x="602" y="722" as="sourcePoint" />
            <mxPoint x="582" y="722" as="targetPoint" />
          </mxGeometry>
        </mxCell>
        <mxCell id="BbgsiEQd0rfRnViW2cmx-116" value="" style="rounded=0;whiteSpace=wrap;html=1;fillColor=#DBDBDB;" vertex="1" parent="1">
          <mxGeometry x="572" y="742" width="20" height="20" as="geometry" />
        </mxCell>
        <mxCell id="BbgsiEQd0rfRnViW2cmx-117" value="" style="rounded=0;whiteSpace=wrap;html=1;fillColor=#DBDBDB;" vertex="1" parent="1">
          <mxGeometry x="612" y="742" width="20" height="20" as="geometry" />
        </mxCell>
        <mxCell id="BbgsiEQd0rfRnViW2cmx-118" value="" style="rounded=0;whiteSpace=wrap;html=1;fillColor=#DBDBDB;fillStyle=solid;" vertex="1" parent="1">
          <mxGeometry x="652" y="742" width="20" height="20" as="geometry" />
        </mxCell>
        <mxCell id="BbgsiEQd0rfRnViW2cmx-119" value="" style="rounded=0;whiteSpace=wrap;html=1;fillColor=#DBDBDB;" vertex="1" parent="1">
          <mxGeometry x="532" y="742" width="20" height="20" as="geometry" />
        </mxCell>
        <mxCell id="BbgsiEQd0rfRnViW2cmx-120" value="" style="rounded=0;whiteSpace=wrap;html=1;fillColor=#000000;fillStyle=zigzag-line;" vertex="1" parent="1">
          <mxGeometry x="692" y="742" width="20" height="20" as="geometry" />
        </mxCell>
        <mxCell id="BbgsiEQd0rfRnViW2cmx-121" value="" style="endArrow=blockThin;html=1;rounded=0;exitX=0;exitY=0.5;exitDx=0;exitDy=0;entryX=1;entryY=0.5;entryDx=0;entryDy=0;endFill=1;" edge="1" parent="1" source="BbgsiEQd0rfRnViW2cmx-116" target="BbgsiEQd0rfRnViW2cmx-119">
          <mxGeometry width="50" height="50" relative="1" as="geometry">
            <mxPoint x="712" y="812" as="sourcePoint" />
            <mxPoint x="762" y="762" as="targetPoint" />
          </mxGeometry>
        </mxCell>
        <mxCell id="BbgsiEQd0rfRnViW2cmx-122" value="" style="endArrow=blockThin;html=1;rounded=0;exitX=0;exitY=0.5;exitDx=0;exitDy=0;endFill=1;entryX=1;entryY=0.5;entryDx=0;entryDy=0;" edge="1" parent="1" source="BbgsiEQd0rfRnViW2cmx-117" target="BbgsiEQd0rfRnViW2cmx-116">
          <mxGeometry width="50" height="50" relative="1" as="geometry">
            <mxPoint x="582" y="762" as="sourcePoint" />
            <mxPoint x="562" y="762" as="targetPoint" />
          </mxGeometry>
        </mxCell>
        <mxCell id="BbgsiEQd0rfRnViW2cmx-123" value="" style="endArrow=blockThin;html=1;rounded=0;exitX=0;exitY=0.5;exitDx=0;exitDy=0;entryX=1;entryY=0.5;entryDx=0;entryDy=0;endFill=1;" edge="1" parent="1" source="BbgsiEQd0rfRnViW2cmx-118" target="BbgsiEQd0rfRnViW2cmx-117">
          <mxGeometry width="50" height="50" relative="1" as="geometry">
            <mxPoint x="592" y="772" as="sourcePoint" />
            <mxPoint x="572" y="772" as="targetPoint" />
          </mxGeometry>
        </mxCell>
        <mxCell id="BbgsiEQd0rfRnViW2cmx-124" value="" style="endArrow=blockThin;html=1;rounded=0;exitX=0;exitY=0.5;exitDx=0;exitDy=0;entryX=1;entryY=0.5;entryDx=0;entryDy=0;endFill=1;" edge="1" parent="1" source="BbgsiEQd0rfRnViW2cmx-120" target="BbgsiEQd0rfRnViW2cmx-118">
          <mxGeometry width="50" height="50" relative="1" as="geometry">
            <mxPoint x="602" y="782" as="sourcePoint" />
            <mxPoint x="582" y="782" as="targetPoint" />
          </mxGeometry>
        </mxCell>
        <mxCell id="BbgsiEQd0rfRnViW2cmx-125" value="" style="endArrow=none;html=1;entryX=0.5;entryY=0;entryDx=0;entryDy=0;exitX=0.5;exitY=1;exitDx=0;exitDy=0;curved=1;dashed=1;endFill=0;startArrow=classicThin;startFill=1;" edge="1" parent="1" source="BbgsiEQd0rfRnViW2cmx-110" target="BbgsiEQd0rfRnViW2cmx-119">
          <mxGeometry width="50" height="50" relative="1" as="geometry">
            <mxPoint x="672" y="762" as="sourcePoint" />
            <mxPoint x="722" y="712" as="targetPoint" />
            <Array as="points">
              <mxPoint x="522" y="722" />
            </Array>
          </mxGeometry>
        </mxCell>
        <mxCell id="BbgsiEQd0rfRnViW2cmx-126" value="" style="endArrow=none;html=1;entryX=0.5;entryY=1;entryDx=0;entryDy=0;exitX=0.5;exitY=0;exitDx=0;exitDy=0;curved=1;startArrow=classicThin;startFill=1;endFill=0;dashed=1;" edge="1" parent="1" source="BbgsiEQd0rfRnViW2cmx-120" target="BbgsiEQd0rfRnViW2cmx-111">
          <mxGeometry width="50" height="50" relative="1" as="geometry">
            <mxPoint x="672" y="762" as="sourcePoint" />
            <mxPoint x="722" y="712" as="targetPoint" />
            <Array as="points">
              <mxPoint x="732" y="722" />
            </Array>
          </mxGeometry>
        </mxCell>
        <mxCell id="BbgsiEQd0rfRnViW2cmx-127" value="Active" style="text;html=1;align=center;verticalAlign=middle;resizable=0;points=[];autosize=1;strokeColor=none;fillColor=none;fontSize=10;" vertex="1" parent="1">
          <mxGeometry x="462" y="677" width="60" height="30" as="geometry" />
        </mxCell>
        <mxCell id="BbgsiEQd0rfRnViW2cmx-128" value="Inactive" style="text;html=1;align=center;verticalAlign=middle;resizable=0;points=[];autosize=1;strokeColor=none;fillColor=none;fontSize=10;" vertex="1" parent="1">
          <mxGeometry x="462" y="737" width="60" height="30" as="geometry" />
        </mxCell>
        <mxCell id="BbgsiEQd0rfRnViW2cmx-129" value="文件页" style="text;html=1;align=center;verticalAlign=middle;resizable=0;points=[];autosize=1;strokeColor=none;fillColor=none;" vertex="1" parent="1">
          <mxGeometry x="292" y="642" width="60" height="30" as="geometry" />
        </mxCell>
        <mxCell id="BbgsiEQd0rfRnViW2cmx-130" value="匿名页" style="text;html=1;align=center;verticalAlign=middle;resizable=0;points=[];autosize=1;strokeColor=none;fillColor=none;" vertex="1" parent="1">
          <mxGeometry x="592" y="642" width="60" height="30" as="geometry" />
        </mxCell>
        <mxCell id="BbgsiEQd0rfRnViW2cmx-131" value="Memory" style="text;html=1;align=center;verticalAlign=middle;resizable=0;points=[];autosize=1;strokeColor=none;fillColor=none;" vertex="1" parent="1">
          <mxGeometry x="62" y="695.75" width="70" height="30" as="geometry" />
        </mxCell>
        <mxCell id="BbgsiEQd0rfRnViW2cmx-132" value="" style="rounded=0;whiteSpace=wrap;html=1;dashed=1;" vertex="1" parent="1">
          <mxGeometry x="183" y="842" width="261" height="70" as="geometry" />
        </mxCell>
        <mxCell id="BbgsiEQd0rfRnViW2cmx-133" value="磁盘" style="text;html=1;align=center;verticalAlign=middle;resizable=0;points=[];autosize=1;strokeColor=none;fillColor=none;" vertex="1" parent="1">
          <mxGeometry x="126" y="862" width="50" height="30" as="geometry" />
        </mxCell>
        <mxCell id="BbgsiEQd0rfRnViW2cmx-134" value="File1" style="rounded=0;whiteSpace=wrap;html=1;fillColor=#CCCCCC;" vertex="1" parent="1">
          <mxGeometry x="222" y="867" width="90" height="20" as="geometry" />
        </mxCell>
        <mxCell id="BbgsiEQd0rfRnViW2cmx-135" value="File2" style="rounded=0;whiteSpace=wrap;html=1;fillColor=#CCCCCC;" vertex="1" parent="1">
          <mxGeometry x="342" y="867" width="70" height="20" as="geometry" />
        </mxCell>
        <mxCell id="BbgsiEQd0rfRnViW2cmx-136" value="" style="endArrow=classic;html=1;rounded=0;entryX=0.5;entryY=1;entryDx=0;entryDy=0;exitX=0.5;exitY=0;exitDx=0;exitDy=0;dashed=1;" edge="1" parent="1" source="BbgsiEQd0rfRnViW2cmx-134" target="BbgsiEQd0rfRnViW2cmx-97">
          <mxGeometry width="50" height="50" relative="1" as="geometry">
            <mxPoint x="372" y="752" as="sourcePoint" />
            <mxPoint x="422" y="702" as="targetPoint" />
          </mxGeometry>
        </mxCell>
        <mxCell id="BbgsiEQd0rfRnViW2cmx-137" value="读入" style="edgeLabel;html=1;align=center;verticalAlign=middle;resizable=0;points=[];" vertex="1" connectable="0" parent="BbgsiEQd0rfRnViW2cmx-136">
          <mxGeometry x="-0.0155" y="-1" relative="1" as="geometry">
            <mxPoint as="offset" />
          </mxGeometry>
        </mxCell>
        <mxCell id="BbgsiEQd0rfRnViW2cmx-138" style="rounded=0;orthogonalLoop=1;jettySize=auto;html=1;exitX=0.5;exitY=1;exitDx=0;exitDy=0;entryX=0.5;entryY=0;entryDx=0;entryDy=0;dashed=1;" edge="1" parent="1" source="BbgsiEQd0rfRnViW2cmx-98" target="BbgsiEQd0rfRnViW2cmx-135">
          <mxGeometry relative="1" as="geometry" />
        </mxCell>
        <mxCell id="BbgsiEQd0rfRnViW2cmx-139" value="换出" style="edgeLabel;html=1;align=center;verticalAlign=middle;resizable=0;points=[];" vertex="1" connectable="0" parent="BbgsiEQd0rfRnViW2cmx-138">
          <mxGeometry x="-0.1279" y="1" relative="1" as="geometry">
            <mxPoint x="-2" y="6" as="offset" />
          </mxGeometry>
        </mxCell>
        <mxCell id="BbgsiEQd0rfRnViW2cmx-140" value="" style="rounded=0;whiteSpace=wrap;html=1;fillColor=#A0BD5E;fillStyle=zigzag-line;" vertex="1" parent="1">
          <mxGeometry x="669.5" y="835" width="20.5" height="20" as="geometry" />
        </mxCell>
        <mxCell id="BbgsiEQd0rfRnViW2cmx-144" value="" style="rounded=0;whiteSpace=wrap;html=1;strokeColor=none;" vertex="1" parent="1">
          <mxGeometry x="484" y="788" width="249" height="6" as="geometry" />
        </mxCell>
        <mxCell id="BbgsiEQd0rfRnViW2cmx-141" style="rounded=0;orthogonalLoop=1;jettySize=auto;html=1;exitX=0.5;exitY=1;exitDx=0;exitDy=0;entryX=0.75;entryY=0;entryDx=0;entryDy=0;dashed=1;" edge="1" parent="1" source="BbgsiEQd0rfRnViW2cmx-120" target="BbgsiEQd0rfRnViW2cmx-140">
          <mxGeometry relative="1" as="geometry">
            <mxPoint x="412" y="772" as="sourcePoint" />
            <mxPoint x="387" y="877" as="targetPoint" />
          </mxGeometry>
        </mxCell>
        <mxCell id="BbgsiEQd0rfRnViW2cmx-142" value="换出" style="edgeLabel;html=1;align=center;verticalAlign=middle;resizable=0;points=[];" vertex="1" connectable="0" parent="BbgsiEQd0rfRnViW2cmx-141">
          <mxGeometry x="-0.1279" y="1" relative="1" as="geometry">
            <mxPoint x="-2" y="6" as="offset" />
          </mxGeometry>
        </mxCell>
        <mxCell id="BbgsiEQd0rfRnViW2cmx-145" value="&lt;span style=&quot;color: rgb(204, 0, 0); font-family: Helvetica; font-size: 12px; font-style: normal; font-variant-ligatures: normal; font-variant-caps: normal; font-weight: 400; letter-spacing: normal; orphans: 2; text-align: center; text-indent: 0px; text-transform: none; widows: 2; word-spacing: 0px; -webkit-text-stroke-width: 0px; background-color: rgb(255, 255, 255); text-decoration-thickness: initial; text-decoration-style: initial; text-decoration-color: initial; float: none; display: inline !important;&quot;&gt;swap&lt;/span&gt;&lt;font style=&quot;border-color: var(--border-color); color: rgb(204, 0, 0); font-family: Helvetica; font-size: 12px; font-style: normal; font-variant-ligatures: normal; font-variant-caps: normal; font-weight: 400; letter-spacing: normal; orphans: 2; text-align: center; text-indent: 0px; text-transform: none; widows: 2; word-spacing: 0px; -webkit-text-stroke-width: 0px; background-color: rgb(255, 255, 255); text-decoration-thickness: initial; text-decoration-style: initial; text-decoration-color: initial;&quot;&gt;(&lt;/font&gt;&lt;span style=&quot;color: rgb(204, 0, 0); font-family: Helvetica; font-size: 12px; font-style: normal; font-variant-ligatures: normal; font-variant-caps: normal; font-weight: 400; letter-spacing: normal; orphans: 2; text-align: center; text-indent: 0px; text-transform: none; widows: 2; word-spacing: 0px; -webkit-text-stroke-width: 0px; background-color: rgb(255, 255, 255); text-decoration-thickness: initial; text-decoration-style: initial; text-decoration-color: initial; float: none; display: inline !important;&quot;&gt;zram0)&lt;/span&gt;" style="text;whiteSpace=wrap;html=1;" vertex="1" parent="1">
          <mxGeometry x="584.5" y="809" width="75" height="24" as="geometry" />
        </mxCell>
        <mxCell id="BbgsiEQd0rfRnViW2cmx-146" value="" style="rounded=0;whiteSpace=wrap;html=1;fillColor=#A0BD5E;" vertex="1" parent="1">
          <mxGeometry x="546" y="835" width="123.5" height="20" as="geometry" />
        </mxCell>
        <mxCell id="BbgsiEQd0rfRnViW2cmx-152" value="页面换出，内存减少 swapout_page * 4k" style="text;html=1;strokeColor=none;fillColor=none;align=center;verticalAlign=middle;whiteSpace=wrap;rounded=0;fontColor=#B20000;" vertex="1" parent="1">
          <mxGeometry x="764" y="737" width="138" height="30" as="geometry" />
        </mxCell>
        <mxCell id="BbgsiEQd0rfRnViW2cmx-153" value="" style="endArrow=classic;html=1;rounded=0;exitX=1;exitY=0.5;exitDx=0;exitDy=0;fillColor=#e51400;strokeColor=#B20000;dashed=1;" edge="1" parent="1" source="BbgsiEQd0rfRnViW2cmx-120" target="BbgsiEQd0rfRnViW2cmx-152">
          <mxGeometry width="50" height="50" relative="1" as="geometry">
            <mxPoint x="347" y="769" as="sourcePoint" />
            <mxPoint x="397" y="719" as="targetPoint" />
          </mxGeometry>
        </mxCell>
        <mxCell id="BbgsiEQd0rfRnViW2cmx-154" value="压缩后写入zram，内存增加&lt;br&gt;compress(swapout_page*4k)&lt;br&gt;压缩后的结果和页面内容强相关" style="text;html=1;strokeColor=none;fillColor=none;align=center;verticalAlign=middle;whiteSpace=wrap;rounded=0;fontColor=#B20000;" vertex="1" parent="1">
          <mxGeometry x="756" y="830" width="181" height="30" as="geometry" />
        </mxCell>
        <mxCell id="BbgsiEQd0rfRnViW2cmx-155" value="" style="endArrow=classic;html=1;rounded=0;exitX=1;exitY=0.5;exitDx=0;exitDy=0;fillColor=#e51400;strokeColor=#B20000;dashed=1;entryX=0;entryY=0.5;entryDx=0;entryDy=0;" edge="1" parent="1" source="BbgsiEQd0rfRnViW2cmx-140" target="BbgsiEQd0rfRnViW2cmx-154">
          <mxGeometry width="50" height="50" relative="1" as="geometry">
            <mxPoint x="722" y="762" as="sourcePoint" />
            <mxPoint x="774" y="762" as="targetPoint" />
          </mxGeometry>
        </mxCell>
        <mxCell id="BbgsiEQd0rfRnViW2cmx-156" value="" style="shape=curlyBracket;whiteSpace=wrap;html=1;rounded=1;flipH=1;labelPosition=right;verticalLabelPosition=middle;align=left;verticalAlign=middle;" vertex="1" parent="1">
          <mxGeometry x="937" y="729" width="20" height="138" as="geometry" />
        </mxCell>
        <mxCell id="BbgsiEQd0rfRnViW2cmx-157" value="总体内存节约了&lt;br&gt;swapout_page*4k*压缩率" style="text;html=1;align=center;verticalAlign=middle;resizable=0;points=[];autosize=1;strokeColor=none;fillColor=none;" vertex="1" parent="1">
          <mxGeometry x="951" y="777.5" width="154" height="41" as="geometry" />
        </mxCell>
        <mxCell id="BbgsiEQd0rfRnViW2cmx-158" value="" style="rounded=0;whiteSpace=wrap;html=1;fillColor=#009900;" vertex="1" parent="1">
          <mxGeometry x="-186" y="1211" width="57.5" height="20" as="geometry" />
        </mxCell>
        <mxCell id="BbgsiEQd0rfRnViW2cmx-159" value="" style="rounded=0;whiteSpace=wrap;html=1;fillColor=#CC0000;" vertex="1" parent="1">
          <mxGeometry x="-108.5" y="1211" width="57.5" height="20" as="geometry" />
        </mxCell>
        <mxCell id="BbgsiEQd0rfRnViW2cmx-160" value="" style="rounded=0;whiteSpace=wrap;html=1;fillColor=#CC0000;fillStyle=auto;gradientColor=none;fixDash=0;backgroundOutline=0;fillOpacity=100;strokeOpacity=100;shadow=0;sketch=1;curveFitting=0;jiggle=0;sketchStyle=rough;hachureGap=-2;hachureAngle=-41;" vertex="1" parent="1">
          <mxGeometry x="-51" y="1211" width="20" height="20" as="geometry" />
        </mxCell>
        <mxCell id="BbgsiEQd0rfRnViW2cmx-161" value="" style="rounded=0;whiteSpace=wrap;html=1;fillColor=#009900;fillStyle=auto;gradientColor=none;fixDash=0;backgroundOutline=0;fillOpacity=100;strokeOpacity=100;shadow=0;sketch=1;curveFitting=0;jiggle=0;sketchStyle=rough;hachureGap=-2;hachureAngle=-41;" vertex="1" parent="1">
          <mxGeometry x="-128.5" y="1211" width="20" height="20" as="geometry" />
        </mxCell>
        <mxCell id="BbgsiEQd0rfRnViW2cmx-162" value="Anon" style="text;html=1;align=center;verticalAlign=middle;resizable=0;points=[];autosize=1;strokeColor=none;fillColor=none;fontColor=#FFFFFF;" vertex="1" parent="1">
          <mxGeometry x="-99" y="1208" width="46" height="26" as="geometry" />
        </mxCell>
        <mxCell id="BbgsiEQd0rfRnViW2cmx-163" value="File" style="text;html=1;align=center;verticalAlign=middle;resizable=0;points=[];autosize=1;strokeColor=none;fillColor=none;fontColor=#FFFFFF;" vertex="1" parent="1">
          <mxGeometry x="-171.5" y="1208" width="37" height="26" as="geometry" />
        </mxCell>
        <mxCell id="BbgsiEQd0rfRnViW2cmx-165" value="Pod内存" style="text;html=1;align=center;verticalAlign=middle;resizable=0;points=[];autosize=1;strokeColor=none;fillColor=none;" vertex="1" parent="1">
          <mxGeometry x="-140.5" y="1180" width="63" height="26" as="geometry" />
        </mxCell>
        <mxCell id="BbgsiEQd0rfRnViW2cmx-166" value="" style="rounded=0;whiteSpace=wrap;html=1;fillColor=#009900;" vertex="1" parent="1">
          <mxGeometry x="60" y="1211" width="57.5" height="20" as="geometry" />
        </mxCell>
        <mxCell id="BbgsiEQd0rfRnViW2cmx-167" value="" style="rounded=0;whiteSpace=wrap;html=1;fillColor=#CC0000;" vertex="1" parent="1">
          <mxGeometry x="117" y="1211" width="57.5" height="20" as="geometry" />
        </mxCell>
        <mxCell id="BbgsiEQd0rfRnViW2cmx-169" value="" style="rounded=0;whiteSpace=wrap;html=1;fillColor=#009900;fillStyle=auto;gradientColor=none;fixDash=0;backgroundOutline=0;fillOpacity=100;strokeOpacity=100;shadow=0;sketch=1;curveFitting=0;jiggle=0;sketchStyle=rough;hachureGap=-2;hachureAngle=-41;" vertex="1" parent="1">
          <mxGeometry x="107.25" y="1271" width="20" height="20" as="geometry" />
        </mxCell>
        <mxCell id="BbgsiEQd0rfRnViW2cmx-170" value="Anon" style="text;html=1;align=center;verticalAlign=middle;resizable=0;points=[];autosize=1;strokeColor=none;fillColor=none;fontColor=#FFFFFF;" vertex="1" parent="1">
          <mxGeometry x="122.75" y="1208" width="46" height="26" as="geometry" />
        </mxCell>
        <mxCell id="BbgsiEQd0rfRnViW2cmx-171" value="File" style="text;html=1;align=center;verticalAlign=middle;resizable=0;points=[];autosize=1;strokeColor=none;fillColor=none;fontColor=#FFFFFF;" vertex="1" parent="1">
          <mxGeometry x="70.25" y="1208" width="37" height="26" as="geometry" />
        </mxCell>
        <mxCell id="BbgsiEQd0rfRnViW2cmx-172" value="Pod内存" style="text;html=1;align=center;verticalAlign=middle;resizable=0;points=[];autosize=1;strokeColor=none;fillColor=none;" vertex="1" parent="1">
          <mxGeometry x="85" y="1180" width="63" height="26" as="geometry" />
        </mxCell>
        <mxCell id="BbgsiEQd0rfRnViW2cmx-173" value="" style="shape=singleArrow;whiteSpace=wrap;html=1;arrowWidth=0.4740484429065712;arrowSize=0.4085561497326198;" vertex="1" parent="1">
          <mxGeometry x="-2" y="1214" width="33" height="15" as="geometry" />
        </mxCell>
        <mxCell id="BbgsiEQd0rfRnViW2cmx-174" value="" style="rounded=0;whiteSpace=wrap;html=1;fillColor=#009900;" vertex="1" parent="1">
          <mxGeometry x="50.25" y="1271" width="57.5" height="20" as="geometry" />
        </mxCell>
        <mxCell id="BbgsiEQd0rfRnViW2cmx-175" value="" style="rounded=0;whiteSpace=wrap;html=1;fillColor=#CC0000;fillStyle=hachure;gradientColor=none;fixDash=0;backgroundOutline=0;fillOpacity=100;strokeOpacity=100;shadow=0;sketch=1;curveFitting=0;jiggle=0;sketchStyle=rough;hachureGap=-30;hachureAngle=-41;fillWeight=1;" vertex="1" parent="1">
          <mxGeometry x="174.5" y="1211.5" width="8.5" height="20" as="geometry" />
        </mxCell>
      </root>
    </mxGraphModel>
  </diagram>
</mxfile>
